<?xml version="1.0" standalone="no"?>
<!DOCTYPE svg PUBLIC "-//W3C//DTD SVG 20010904//EN"
 "http://www.w3.org/TR/2001/REC-SVG-20010904/DTD/svg10.dtd">
<svg version="1.0" xmlns="http://www.w3.org/2000/svg"
 width="1200.000000pt" height="1800.000000pt" viewBox="0 0 1200.000000 1800.000000"
 preserveAspectRatio="xMidYMid meet">

<g transform="translate(0.000000,1800.000000) scale(0.100000,-0.100000)"
fill="#000000" stroke="none">
<path d="M5220 17300 c0 -28 2 -30 40 -30 38 0 40 2 40 30 0 28 -2 30 -40 30
-38 0 -40 -2 -40 -30z"/>
<path d="M5330 17280 c0 -62 -31 -100 -80 -100 -20 0 -30 -5 -30 -15 0 -39
100 -4 125 45 20 39 20 120 0 120 -11 0 -15 -12 -15 -50z"/>
<path d="M2570 16720 l0 -410 25 0 25 0 0 342 c0 188 4 338 8 333 5 -6 60
-135 123 -287 63 -152 117 -274 120 -270 3 4 61 133 128 287 68 154 127 284
132 290 5 5 9 -132 9 -343 0 -306 2 -352 15 -352 13 0 15 52 15 410 l0 410
-22 0 c-20 0 -38 -34 -148 -286 -69 -157 -127 -287 -130 -289 -3 -2 -58 127
-124 286 -117 284 -119 289 -147 289 l-29 0 0 -410z"/>
<path d="M3200 16720 l0 -410 40 0 40 0 0 410 0 410 -40 0 -40 0 0 -410z"/>
<path d="M3390 17105 c0 -22 4 -25 35 -25 l35 0 0 -360 0 -360 -35 0 c-31 0
-35 -3 -35 -25 l0 -25 160 0 160 0 0 25 c0 23 -3 25 -50 25 l-50 0 0 360 0
360 50 0 c47 0 50 2 50 25 l0 25 -160 0 -160 0 0 -25z m190 -385 c0 -313 -2
-360 -15 -360 -13 0 -15 47 -15 360 0 313 2 360 15 360 13 0 15 -47 15 -360z"/>
<path d="M3830 16720 l0 -410 40 0 40 0 0 410 0 410 -40 0 -40 0 0 -410z"/>
<path d="M3940 16720 c0 -358 2 -410 15 -410 11 0 15 12 15 47 0 47 5 55 125
211 8 10 34 -17 114 -122 91 -121 107 -136 133 -136 36 0 42 -11 -94 168 -68
88 -106 147 -102 155 4 6 90 121 191 255 l184 242 -33 0 c-31 -1 -45 -16 -266
-310 -129 -171 -238 -310 -243 -310 -5 0 -9 133 -9 310 0 269 -2 310 -15 310
-13 0 -15 -52 -15 -410z"/>
<path d="M4590 16720 l0 -410 265 0 265 0 0 25 0 25 -195 0 -195 0 0 70 0 70
175 0 175 0 0 25 0 25 -175 0 -175 0 0 265 0 265 195 0 195 0 0 25 0 25 -265
0 -265 0 0 -410z m110 95 c0 -229 -2 -265 -15 -265 -13 0 -15 36 -15 265 0
229 2 265 15 265 13 0 15 -36 15 -265z m0 -385 c0 -56 -3 -70 -15 -70 -12 0
-15 14 -15 70 0 56 3 70 15 70 12 0 15 -14 15 -70z"/>
<path d="M5633 17110 c-60 -27 -85 -71 -80 -138 5 -67 40 -106 149 -162 l78
-41 -2 -202 -3 -202 -44 -3 c-104 -8 -221 86 -221 178 0 15 -7 20 -25 20 -20
0 -25 -5 -25 -25 0 -65 68 -157 144 -197 55 -28 133 -34 192 -14 185 61 232
287 91 429 -20 19 -81 59 -137 88 -56 29 -113 66 -126 82 -48 56 -19 140 53
153 48 9 101 -17 116 -56 8 -21 18 -30 34 -30 54 0 8 89 -61 121 -52 24 -80
23 -133 -1z m207 -550 c0 -140 -2 -169 -15 -174 -13 -5 -15 19 -15 181 0 164
2 184 15 173 12 -10 15 -43 15 -180z"/>
<path d="M6480 16721 l0 -411 40 0 40 0 0 60 c0 47 3 60 15 60 12 0 15 -13 15
-60 0 -46 3 -60 15 -60 10 0 15 16 17 61 l3 61 55 17 c173 54 268 159 278 305
2 39 -1 90 -7 113 -38 139 -201 248 -388 260 l-83 6 0 -412z m110 59 c0 -260
-2 -300 -15 -300 -13 0 -15 40 -15 300 0 260 2 300 15 300 13 0 15 -40 15
-300z m145 251 c122 -57 182 -152 173 -275 -3 -34 -13 -77 -22 -94 -37 -72
-143 -147 -233 -167 l-33 -7 0 285 c0 156 3 287 7 290 9 9 35 1 108 -32z"/>
<path d="M7265 17118 c-4 -12 -121 -438 -145 -525 -10 -40 -13 -43 -45 -43
-31 0 -35 -3 -35 -25 0 -20 5 -25 25 -25 14 0 25 -3 25 -8 0 -4 -11 -46 -24
-95 l-24 -87 27 0 c26 0 28 4 51 95 l24 96 110 -3 110 -3 25 -92 c15 -59 29
-93 38 -93 18 0 17 13 -11 109 -21 72 -22 82 -7 79 11 -2 23 -31 41 -96 l24
-92 43 0 c24 0 43 1 43 3 -1 1 -52 184 -113 407 l-113 405 -32 3 c-20 2 -34
-2 -37 -10z m80 -333 c31 -110 58 -208 61 -217 3 -12 0 -18 -10 -18 -16 0 -22
18 -91 265 -22 77 -34 139 -30 153 3 13 8 23 10 21 2 -2 29 -94 60 -204z m-41
-77 l43 -153 -90 -3 c-49 -1 -91 -1 -93 1 -2 1 12 59 32 127 19 69 39 143 46
165 6 22 13 34 15 28 3 -7 24 -81 47 -165z"/>
<path d="M7835 17116 c-17 -7 -43 -28 -58 -45 -22 -27 -27 -42 -27 -87 0 -48
4 -58 35 -93 20 -21 72 -58 116 -81 l79 -41 -2 -202 -3 -202 -49 -3 c-97 -6
-198 69 -212 161 -6 31 -10 37 -32 37 -23 0 -24 -3 -19 -40 16 -123 151 -222
282 -206 140 16 236 134 222 272 -11 107 -74 179 -224 259 -115 60 -147 92
-146 142 1 48 48 93 96 93 42 0 95 -33 103 -65 4 -18 13 -25 30 -25 52 0 9 90
-59 120 -49 23 -90 24 -132 6z m205 -551 c0 -124 -3 -165 -13 -174 -8 -6 -17
-8 -20 -4 -9 8 -9 348 0 356 3 4 12 2 20 -4 10 -9 13 -50 13 -174z"/>
<path d="M8230 17105 c0 -25 0 -25 95 -25 l95 0 0 -385 0 -385 45 0 45 0 0
385 c0 336 2 385 15 385 13 0 15 -49 15 -385 0 -336 2 -385 15 -385 13 0 15
49 15 385 l0 385 105 0 105 0 0 25 0 25 -275 0 -275 0 0 -25z"/>
<path d="M8954 16843 l-79 -288 -38 -3 c-32 -3 -37 -7 -37 -28 0 -20 5 -24 31
-24 25 0 29 -3 24 -19 -10 -33 -45 -161 -45 -166 0 -3 11 -5 25 -5 20 0 26 7
35 43 6 23 18 66 26 95 l15 52 109 0 108 0 6 -27 c25 -102 48 -163 62 -163 10
0 13 6 10 18 -8 28 -46 166 -46 169 0 2 6 3 13 3 8 0 19 -17 25 -37 6 -21 18
-64 27 -95 16 -58 16 -58 56 -58 21 0 39 4 39 8 0 4 -49 187 -110 405 -60 219
-110 400 -110 402 0 3 -15 5 -33 5 l-34 0 -79 -287z m159 -70 c32 -115 57
-211 57 -215 0 -5 -6 -8 -13 -8 -8 0 -33 70 -68 198 -50 179 -59 232 -40 232
4 0 33 -93 64 -207z m-49 -46 c21 -78 41 -150 44 -159 4 -16 -5 -18 -87 -18
-55 0 -91 4 -91 10 0 20 83 310 89 310 3 0 23 -64 45 -143z"/>
<path d="M713 15244 l-23 -5 0 -265 0 -264 30 0 30 0 0 83 0 82 74 0 c65 0 78
3 100 24 32 30 50 115 43 197 -11 118 -41 146 -157 150 -41 1 -85 0 -97 -2z
m158 -63 c22 -18 24 -26 24 -121 0 -95 -2 -103 -24 -121 -16 -13 -39 -19 -72
-19 l-49 0 0 140 0 140 49 0 c33 0 56 -6 72 -19z"/>
<path d="M2433 15244 l-23 -5 0 -264 0 -264 46 -7 c65 -9 140 2 174 26 49 35
65 96 65 245 0 212 -34 266 -169 271 -39 1 -81 0 -93 -2z m150 -64 c39 -31 52
-82 52 -205 0 -169 -30 -225 -121 -225 l-44 0 0 225 0 225 44 0 c28 0 52 -7
69 -20z"/>
<path d="M3220 14975 l0 -265 30 0 30 0 0 159 c0 131 3 161 16 171 22 19 70
16 94 -5 18 -17 20 -30 20 -172 l0 -153 30 0 30 0 0 170 c0 170 0 171 -25 196
-22 22 -33 25 -73 21 -26 -2 -57 -8 -69 -12 -23 -7 -23 -6 -23 74 l0 81 -30 0
-30 0 0 -265z"/>
<path d="M2790 15175 c0 -43 1 -45 30 -45 29 0 30 2 30 45 0 43 -1 45 -30 45
-29 0 -30 -2 -30 -45z"/>
<path d="M1638 15128 c-2 -36 -7 -44 -25 -46 -33 -5 -31 -42 2 -42 l25 0 0
-141 0 -141 29 -29 c29 -29 60 -36 109 -23 31 9 28 34 -3 34 -14 0 -37 11 -50
25 -24 23 -25 30 -25 148 l0 125 47 8 c33 6 49 15 51 27 3 14 -4 17 -47 17
l-51 0 0 40 c0 38 -2 40 -29 40 -28 0 -30 -3 -33 -42z"/>
<path d="M1073 15093 c-45 -9 -25 -30 34 -36 69 -7 88 -25 98 -89 l6 -48 -71
0 c-62 0 -74 -3 -95 -25 -21 -20 -25 -34 -25 -85 0 -51 4 -65 25 -85 27 -28
89 -34 128 -13 12 6 39 11 60 9 l37 -2 0 147 c0 167 -11 205 -62 223 -30 11
-91 12 -135 4z m137 -267 c0 -61 -14 -79 -60 -79 -62 0 -93 70 -50 113 14 14
33 20 65 20 l45 0 0 -54z"/>
<path d="M1391 15089 c-36 -14 -50 -39 -51 -90 0 -60 25 -92 99 -127 52 -25
56 -30 59 -64 4 -45 -14 -57 -94 -65 -33 -4 -54 -11 -54 -18 0 -27 109 -34
165 -11 47 20 65 79 44 139 -12 37 -22 46 -81 76 -68 35 -85 55 -73 91 7 21
59 40 113 40 20 0 32 5 32 14 0 24 -110 35 -159 15z"/>
<path d="M1893 15093 c-40 -8 -27 -33 16 -33 86 0 121 -30 121 -106 l0 -34
-64 0 c-35 0 -72 -3 -81 -6 -25 -10 -45 -58 -45 -109 0 -38 5 -52 29 -76 32
-32 84 -39 124 -17 12 6 39 11 60 9 l37 -2 0 150 c0 82 -4 161 -10 175 -17 46
-96 67 -187 49z m137 -272 c0 -66 -5 -73 -56 -74 -44 -1 -68 23 -68 69 0 46
23 64 81 64 l43 0 0 -59z"/>
<path d="M2970 15087 c-47 -24 -61 -80 -36 -142 11 -26 29 -41 76 -65 72 -36
91 -66 67 -103 -16 -25 -54 -37 -113 -37 -53 0 -44 -27 12 -36 116 -17 174 18
174 106 0 60 -22 89 -100 127 -47 24 -55 33 -58 59 -4 41 15 55 88 61 38 4 60
10 60 18 0 25 -126 34 -170 12z"/>
<path d="M3614 15077 c-39 -33 -54 -84 -54 -186 0 -154 52 -207 184 -187 55 9
65 36 14 36 -90 0 -129 32 -132 107 l-1 38 93 3 c105 3 103 0 81 102 -16 73
-43 101 -105 107 -43 4 -54 2 -80 -20z m105 -43 c13 -17 21 -41 21 -65 l0 -39
-60 0 c-67 0 -69 3 -50 72 17 60 56 74 89 32z"/>
<path d="M3920 15087 c-47 -24 -61 -80 -36 -142 11 -26 29 -41 76 -65 72 -36
91 -66 67 -103 -16 -25 -54 -37 -113 -37 -53 0 -44 -27 12 -36 116 -17 174 18
174 106 0 60 -22 89 -100 127 -47 24 -55 33 -58 59 -4 41 15 55 88 61 38 4 60
10 60 18 0 25 -126 34 -170 12z"/>
<path d="M2790 14900 l0 -190 30 0 30 0 0 190 0 190 -30 0 -30 0 0 -190z"/>
<path d="M7170 14315 c0 -18 -5 -25 -18 -25 -28 0 -63 -44 -69 -87 -7 -51 17
-106 56 -129 30 -18 31 -20 31 -96 l0 -78 -40 0 c-29 0 -40 -4 -40 -15 0 -10
14 -17 40 -21 30 -5 40 -11 40 -25 0 -12 7 -19 20 -19 15 0 20 7 20 25 0 18 5
25 18 25 33 0 65 45 69 97 5 57 -11 90 -54 118 -32 20 -32 21 -33 98 l0 77 40
0 c28 0 40 4 40 14 0 9 -15 17 -40 21 -30 5 -40 11 -40 26 0 12 -7 19 -20 19
-15 0 -20 -7 -20 -25z m0 -132 l-1 -68 -19 24 c-22 26 -25 47 -10 85 17 46 30
29 30 -41z m80 -199 c0 -31 -17 -74 -30 -74 -6 0 -10 28 -10 67 0 65 0 66 20
48 11 -10 20 -28 20 -41z"/>
<path d="M209 14285 c-45 -24 -64 -86 -64 -205 1 -137 23 -193 83 -211 50 -14
132 -4 132 17 0 10 -13 14 -51 14 -63 0 -82 10 -100 52 -19 44 -19 212 0 256
17 41 37 52 95 52 33 0 46 4 46 14 0 27 -97 35 -141 11z"/>
<path d="M870 14085 c0 -234 -6 -220 92 -220 44 0 62 5 78 20 40 40 48 189 13
257 -19 39 -58 47 -115 23 -16 -6 -18 0 -18 59 0 64 -1 66 -25 66 l-25 0 0
-205z m147 14 c28 -80 7 -186 -40 -202 -53 -17 -57 -9 -57 118 0 111 1 116 23
124 33 13 61 -2 74 -40z"/>
<path d="M7353 14283 c-35 -7 -29 -33 7 -33 l30 0 0 -190 0 -190 25 0 25 0 0
210 0 210 -32 -1 c-18 -1 -43 -4 -55 -6z"/>
<path d="M7520 14185 l0 -105 55 0 c73 0 95 -21 95 -90 0 -71 -21 -90 -100
-90 -44 0 -60 -4 -60 -14 0 -25 94 -34 149 -15 40 14 61 54 61 119 0 88 -39
130 -121 130 -29 0 -29 0 -29 65 l0 65 70 0 c63 0 70 2 70 20 0 19 -7 20 -95
20 l-95 0 0 -105z"/>
<path d="M448 14174 c-32 -10 -19 -21 29 -27 56 -6 86 -35 81 -80 -3 -30 -4
-30 -61 -31 -71 -1 -87 -17 -87 -88 0 -67 26 -92 83 -84 23 4 59 6 81 6 l38
-1 -3 130 c-4 118 -6 133 -26 152 -21 22 -96 34 -135 23z m110 -217 c3 -43 1
-48 -24 -57 -40 -16 -74 10 -74 55 0 40 20 56 65 52 28 -2 30 -5 33 -50z"/>
<path d="M1193 14170 c-37 -15 -53 -61 -53 -152 0 -103 20 -143 75 -154 93
-17 135 31 135 154 0 87 -19 138 -55 152 -32 12 -72 12 -102 0z m83 -34 c17
-13 19 -27 19 -116 0 -89 -2 -103 -19 -116 -24 -17 -37 -18 -60 -1 -39 29 -43
190 -5 228 23 23 39 24 65 5z"/>
<path d="M1505 14171 c-11 -5 -35 -6 -52 -3 l-33 5 0 -152 0 -151 25 0 25 0 0
130 0 130 26 11 c20 7 32 6 50 -6 23 -15 24 -20 24 -140 l0 -125 25 0 25 0 0
135 c0 122 -2 137 -20 155 -20 20 -59 25 -95 11z"/>
<path d="M1728 14174 c-32 -9 -19 -21 28 -27 57 -6 76 -24 78 -74 l1 -38 -52
3 c-69 5 -93 -18 -93 -88 0 -69 26 -95 84 -85 22 4 56 7 74 6 l32 -1 0 133 c0
121 -2 136 -20 152 -20 18 -97 29 -132 19z m110 -217 c3 -43 1 -48 -22 -57
-53 -20 -96 22 -76 75 10 27 25 35 65 32 28 -2 30 -5 33 -50z"/>
<path d="M2178 14174 c-32 -9 -19 -21 27 -26 60 -7 75 -22 75 -73 l0 -42 -48
5 c-69 6 -97 -19 -97 -88 0 -66 29 -95 85 -85 19 3 52 6 73 6 l37 -1 0 129 c0
156 -8 172 -86 177 -27 1 -57 0 -66 -2z m102 -218 c0 -46 -3 -54 -21 -59 -64
-17 -109 61 -57 97 12 9 35 16 50 16 27 0 28 -2 28 -54z"/>
<path d="M680 14020 l0 -150 25 0 25 0 0 124 c0 120 1 124 23 130 12 3 32 6
45 6 15 0 22 6 22 20 0 23 -25 26 -66 8 -22 -10 -28 -10 -32 0 -2 6 -12 12
-23 12 -18 0 -19 -9 -19 -150z"/>
<path d="M1960 14020 l0 -150 25 0 25 0 0 124 c0 120 1 124 23 130 12 3 32 6
45 6 15 0 22 6 22 20 0 23 -25 26 -66 8 -22 -10 -28 -10 -32 0 -2 6 -12 12
-23 12 -18 0 -19 -9 -19 -150z"/>
<path d="M2390 13905 c0 -31 3 -35 25 -35 22 0 25 4 25 35 0 31 -3 35 -25 35
-22 0 -25 -4 -25 -35z"/>
<path d="M2500 13905 c0 -28 4 -35 20 -35 16 0 20 7 20 35 0 28 -4 35 -20 35
-16 0 -20 -7 -20 -35z"/>
<path d="M2600 13905 c0 -31 3 -35 25 -35 22 0 25 4 25 35 0 31 -3 35 -25 35
-22 0 -25 -4 -25 -35z"/>
<path d="M2700 13905 c0 -31 3 -35 25 -35 22 0 25 4 25 35 0 31 -3 35 -25 35
-22 0 -25 -4 -25 -35z"/>
<path d="M2800 13905 c0 -31 3 -35 25 -35 22 0 25 4 25 35 0 31 -3 35 -25 35
-22 0 -25 -4 -25 -35z"/>
<path d="M2900 13905 c0 -31 3 -35 25 -35 22 0 25 4 25 35 0 31 -3 35 -25 35
-22 0 -25 -4 -25 -35z"/>
<path d="M3010 13905 c0 -28 4 -35 20 -35 16 0 20 7 20 35 0 28 -4 35 -20 35
-16 0 -20 -7 -20 -35z"/>
<path d="M3110 13905 c0 -31 3 -35 25 -35 22 0 25 4 25 35 0 31 -3 35 -25 35
-22 0 -25 -4 -25 -35z"/>
<path d="M3210 13905 c0 -31 3 -35 25 -35 22 0 25 4 25 35 0 31 -3 35 -25 35
-22 0 -25 -4 -25 -35z"/>
<path d="M3310 13905 c0 -31 3 -35 25 -35 22 0 25 4 25 35 0 31 -3 35 -25 35
-22 0 -25 -4 -25 -35z"/>
<path d="M3410 13905 c0 -31 3 -35 25 -35 22 0 25 4 25 35 0 31 -3 35 -25 35
-22 0 -25 -4 -25 -35z"/>
<path d="M3520 13905 c0 -28 4 -35 20 -35 16 0 20 7 20 35 0 28 -4 35 -20 35
-16 0 -20 -7 -20 -35z"/>
<path d="M3620 13905 c0 -31 3 -35 25 -35 22 0 25 4 25 35 0 31 -3 35 -25 35
-22 0 -25 -4 -25 -35z"/>
<path d="M3720 13905 c0 -31 3 -35 25 -35 22 0 25 4 25 35 0 31 -3 35 -25 35
-22 0 -25 -4 -25 -35z"/>
<path d="M3820 13905 c0 -31 3 -35 25 -35 22 0 25 4 25 35 0 31 -3 35 -25 35
-22 0 -25 -4 -25 -35z"/>
<path d="M3920 13905 c0 -31 3 -35 25 -35 22 0 25 4 25 35 0 31 -3 35 -25 35
-22 0 -25 -4 -25 -35z"/>
<path d="M4030 13905 c0 -28 4 -35 20 -35 16 0 20 7 20 35 0 28 -4 35 -20 35
-16 0 -20 -7 -20 -35z"/>
<path d="M4130 13905 c0 -31 3 -35 25 -35 22 0 25 4 25 35 0 31 -3 35 -25 35
-22 0 -25 -4 -25 -35z"/>
<path d="M4230 13905 c0 -31 3 -35 25 -35 22 0 25 4 25 35 0 31 -3 35 -25 35
-22 0 -25 -4 -25 -35z"/>
<path d="M4330 13905 c0 -31 3 -35 25 -35 22 0 25 4 25 35 0 31 -3 35 -25 35
-22 0 -25 -4 -25 -35z"/>
<path d="M4430 13905 c0 -31 3 -35 25 -35 22 0 25 4 25 35 0 31 -3 35 -25 35
-22 0 -25 -4 -25 -35z"/>
<path d="M4540 13905 c0 -28 4 -35 20 -35 16 0 20 7 20 35 0 28 -4 35 -20 35
-16 0 -20 -7 -20 -35z"/>
<path d="M4640 13905 c0 -31 3 -35 25 -35 22 0 25 4 25 35 0 31 -3 35 -25 35
-22 0 -25 -4 -25 -35z"/>
<path d="M4740 13905 c0 -31 3 -35 25 -35 22 0 25 4 25 35 0 31 -3 35 -25 35
-22 0 -25 -4 -25 -35z"/>
<path d="M4840 13905 c0 -31 3 -35 25 -35 22 0 25 4 25 35 0 31 -3 35 -25 35
-22 0 -25 -4 -25 -35z"/>
<path d="M4940 13905 c0 -31 3 -35 25 -35 22 0 25 4 25 35 0 31 -3 35 -25 35
-22 0 -25 -4 -25 -35z"/>
<path d="M5050 13905 c0 -28 4 -35 20 -35 16 0 20 7 20 35 0 28 -4 35 -20 35
-16 0 -20 -7 -20 -35z"/>
<path d="M5150 13905 c0 -31 3 -35 25 -35 22 0 25 4 25 35 0 31 -3 35 -25 35
-22 0 -25 -4 -25 -35z"/>
<path d="M5250 13905 c0 -31 3 -35 25 -35 22 0 25 4 25 35 0 31 -3 35 -25 35
-22 0 -25 -4 -25 -35z"/>
<path d="M5350 13905 c0 -31 3 -35 25 -35 22 0 25 4 25 35 0 31 -3 35 -25 35
-22 0 -25 -4 -25 -35z"/>
<path d="M5450 13905 c0 -31 3 -35 25 -35 22 0 25 4 25 35 0 31 -3 35 -25 35
-22 0 -25 -4 -25 -35z"/>
<path d="M5560 13905 c0 -28 4 -35 20 -35 16 0 20 7 20 35 0 28 -4 35 -20 35
-16 0 -20 -7 -20 -35z"/>
<path d="M5660 13905 c0 -31 3 -35 25 -35 22 0 25 4 25 35 0 31 -3 35 -25 35
-22 0 -25 -4 -25 -35z"/>
<path d="M5760 13905 c0 -31 3 -35 25 -35 22 0 25 4 25 35 0 31 -3 35 -25 35
-22 0 -25 -4 -25 -35z"/>
<path d="M5860 13905 c0 -31 3 -35 25 -35 22 0 25 4 25 35 0 31 -3 35 -25 35
-22 0 -25 -4 -25 -35z"/>
<path d="M5960 13905 c0 -31 3 -35 25 -35 22 0 25 4 25 35 0 31 -3 35 -25 35
-22 0 -25 -4 -25 -35z"/>
<path d="M6070 13905 c0 -28 4 -35 20 -35 16 0 20 7 20 35 0 28 -4 35 -20 35
-16 0 -20 -7 -20 -35z"/>
<path d="M6170 13905 c0 -31 3 -35 25 -35 22 0 25 4 25 35 0 31 -3 35 -25 35
-22 0 -25 -4 -25 -35z"/>
<path d="M6270 13905 c0 -31 3 -35 25 -35 22 0 25 4 25 35 0 31 -3 35 -25 35
-22 0 -25 -4 -25 -35z"/>
<path d="M6370 13905 c0 -31 3 -35 25 -35 22 0 25 4 25 35 0 31 -3 35 -25 35
-22 0 -25 -4 -25 -35z"/>
<path d="M6470 13905 c0 -31 3 -35 25 -35 22 0 25 4 25 35 0 31 -3 35 -25 35
-22 0 -25 -4 -25 -35z"/>
<path d="M6580 13905 c0 -28 4 -35 20 -35 16 0 20 7 20 35 0 28 -4 35 -20 35
-16 0 -20 -7 -20 -35z"/>
<path d="M6680 13905 c0 -31 3 -35 25 -35 22 0 25 4 25 35 0 31 -3 35 -25 35
-22 0 -25 -4 -25 -35z"/>
<path d="M6780 13905 c0 -31 3 -35 25 -35 22 0 25 4 25 35 0 31 -3 35 -25 35
-22 0 -25 -4 -25 -35z"/>
<path d="M6880 13905 c0 -31 3 -35 25 -35 22 0 25 4 25 35 0 31 -3 35 -25 35
-22 0 -25 -4 -25 -35z"/>
<path d="M6980 13905 c0 -31 3 -35 25 -35 22 0 25 4 25 35 0 31 -3 35 -25 35
-22 0 -25 -4 -25 -35z"/>
<path d="M7230 13000 c0 -13 -12 -25 -34 -34 -43 -18 -56 -42 -56 -105 0 -38
6 -56 25 -80 14 -16 35 -33 45 -36 18 -6 20 -16 20 -86 l0 -79 -45 0 c-32 0
-45 -4 -45 -14 0 -10 16 -17 45 -22 35 -5 45 -10 45 -25 0 -11 7 -19 15 -19 8
0 15 9 15 20 0 13 12 25 34 34 44 18 56 42 56 108 0 61 -16 90 -60 108 -30 12
-30 13 -30 91 l0 79 40 0 c29 0 40 4 40 15 0 10 -14 17 -40 21 -30 5 -40 11
-40 25 0 11 -7 19 -15 19 -8 0 -15 -9 -15 -20z m0 -135 c0 -63 -1 -65 -20 -55
-34 18 -24 120 12 120 4 0 8 -29 8 -65z m70 -180 c9 -24 3 -62 -13 -82 -19
-26 -27 -11 -27 52 0 54 2 63 16 58 8 -3 19 -16 24 -28z"/>
<path d="M195 12971 c-51 -21 -75 -96 -52 -161 10 -29 24 -41 82 -71 68 -35
70 -37 73 -77 5 -61 -21 -82 -98 -82 -44 0 -60 -4 -60 -14 0 -25 94 -34 149
-15 39 14 61 54 61 112 0 57 -28 93 -96 123 -59 26 -79 53 -69 92 12 49 33 62
97 62 42 0 58 4 58 14 0 23 -101 35 -145 17z"/>
<path d="M2453 12973 c-23 -4 -23 -5 -23 -212 l0 -208 31 -7 c128 -25 199 16
199 116 0 44 -30 108 -51 108 -5 0 -1 13 10 29 30 41 28 111 -2 147 -21 23
-33 28 -83 30 -32 1 -69 0 -81 -3z m119 -50 c12 -11 18 -30 18 -59 0 -50 -25
-74 -77 -74 l-33 0 0 75 0 75 37 0 c20 0 45 -7 55 -17z m18 -193 c14 -14 20
-33 20 -65 0 -61 -24 -85 -85 -85 l-45 0 0 85 0 85 45 0 c32 0 51 -6 65 -20z"/>
<path d="M7621 12954 c-39 -33 -51 -77 -51 -194 0 -117 12 -161 51 -194 56
-48 126 -29 161 42 18 38 22 63 22 152 0 89 -4 114 -22 152 -35 71 -105 90
-161 42z m116 -56 c19 -38 26 -156 14 -223 -19 -107 -82 -132 -118 -47 -20 46
-22 201 -4 254 17 51 48 73 76 54 11 -7 26 -24 32 -38z"/>
<path d="M1220 12760 l0 -210 25 0 25 0 0 134 c0 128 1 134 21 139 28 7 65 -7
73 -28 3 -9 6 -68 6 -131 l0 -114 25 0 25 0 -1 118 c-1 139 -6 162 -41 182
-22 11 -35 12 -67 4 l-41 -11 0 63 c0 62 -1 64 -25 64 l-25 0 0 -210z"/>
<path d="M3000 12760 l0 -210 25 0 25 0 0 210 0 210 -25 0 -25 0 0 -210z"/>
<path d="M7403 12963 c-35 -7 -29 -33 7 -33 l30 0 0 -190 0 -190 25 0 25 0 0
210 0 210 -32 -1 c-18 -1 -43 -4 -55 -6z"/>
<path d="M2130 12925 c0 -31 3 -35 25 -35 22 0 25 4 25 35 0 31 -3 35 -25 35
-22 0 -25 -4 -25 -35z"/>
<path d="M1760 12885 c0 -28 -4 -35 -20 -35 -13 0 -20 -7 -20 -20 0 -11 7 -20
15 -20 12 0 15 -16 15 -87 0 -152 25 -194 104 -179 40 8 49 26 13 26 -52 0
-62 20 -65 133 l-4 105 41 7 c55 9 56 35 1 35 -39 0 -40 1 -40 35 0 28 -4 35
-20 35 -16 0 -20 -7 -20 -35z"/>
<path d="M1950 12885 c0 -28 -4 -35 -20 -35 -13 0 -20 -7 -20 -20 0 -13 7 -20
20 -20 19 0 20 -7 20 -110 0 -104 1 -112 25 -135 25 -25 42 -29 83 -19 32 9
27 21 -12 28 -19 4 -37 14 -40 22 -3 9 -6 60 -6 114 l0 98 35 6 c21 4 35 13
35 21 0 10 -11 15 -35 15 -33 0 -35 2 -35 35 0 31 -3 35 -25 35 -22 0 -25 -4
-25 -35z"/>
<path d="M491 12851 c-8 -5 -29 -7 -48 -4 l-33 6 0 -212 0 -211 25 0 c24 0 25
2 25 66 0 59 2 65 18 59 37 -16 73 -17 96 -2 63 42 56 276 -9 301 -23 9 -58 7
-74 -3z m65 -67 c29 -70 9 -195 -33 -206 -10 -3 -29 -1 -41 3 -21 8 -22 14
-22 119 0 105 1 111 22 119 35 13 59 1 74 -35z"/>
<path d="M708 12854 c-32 -10 -19 -21 29 -27 56 -6 86 -35 81 -80 -3 -30 -4
-30 -61 -31 -71 -1 -87 -17 -87 -88 0 -67 26 -92 83 -84 23 4 59 6 81 6 l38
-1 -3 130 c-4 118 -6 133 -26 152 -21 22 -96 34 -135 23z m110 -217 c3 -43 1
-48 -24 -57 -40 -16 -74 10 -74 55 0 40 20 56 65 52 28 -2 30 -5 33 -50z"/>
<path d="M993 12850 c-40 -17 -55 -64 -51 -161 3 -77 6 -91 28 -114 25 -27 57
-30 103 -10 14 6 17 2 17 -23 0 -48 -28 -74 -88 -80 -29 -2 -52 -8 -52 -13 0
-14 87 -21 123 -10 58 19 67 53 67 239 0 99 -4 163 -10 167 -19 11 -114 15
-137 5z m95 -141 c2 -112 2 -117 -19 -122 -33 -9 -68 9 -74 38 -3 14 -7 37
-10 51 -3 15 -1 51 5 81 12 56 31 75 75 70 19 -2 20 -10 23 -118z"/>
<path d="M1520 12832 c-21 -22 -30 -42 -35 -85 -19 -152 35 -224 150 -203 42
8 47 26 6 26 -51 0 -89 19 -100 52 -23 64 -19 68 64 68 l75 0 -1 38 c0 55 -21
105 -49 119 -41 21 -79 16 -110 -15z m95 -26 c9 -14 15 -37 13 -53 -3 -25 -8
-28 -42 -31 -48 -4 -60 7 -51 47 13 60 53 78 80 37z"/>
<path d="M2773 12850 c-43 -17 -58 -57 -58 -151 0 -103 18 -138 79 -153 81
-21 128 27 134 133 5 82 -10 133 -45 161 -27 21 -72 25 -110 10z m83 -41 c16
-17 19 -37 19 -109 0 -72 -3 -92 -19 -109 -11 -12 -27 -21 -36 -21 -9 0 -25 9
-36 21 -16 17 -19 37 -19 109 0 72 3 92 19 109 11 12 27 21 36 21 9 0 25 -9
36 -21z"/>
<path d="M3183 12850 c-43 -17 -58 -57 -58 -151 0 -103 18 -138 79 -153 81
-21 128 27 134 133 5 82 -10 133 -45 161 -27 21 -72 25 -110 10z m83 -41 c16
-17 19 -37 19 -109 0 -72 -3 -92 -19 -109 -11 -12 -27 -21 -36 -21 -9 0 -25 9
-36 21 -16 17 -19 37 -19 109 0 72 3 92 19 109 11 12 27 21 36 21 9 0 25 -9
36 -21z"/>
<path d="M3449 12845 c-35 -19 -49 -62 -49 -146 0 -81 10 -112 46 -135 21 -15
33 -16 65 -7 38 10 39 10 39 -17 0 -44 -29 -71 -83 -77 -26 -3 -47 -9 -47 -14
0 -15 72 -22 111 -10 62 19 69 42 69 235 0 102 -4 167 -10 171 -24 15 -116 15
-141 0z m101 -135 c0 -66 -4 -120 -9 -120 -5 0 -16 -3 -25 -6 -9 -3 -26 5 -41
20 -22 22 -25 33 -25 101 0 67 3 79 25 100 13 14 36 25 50 25 l25 0 0 -120z"/>
<path d="M3760 12850 c-8 -5 -30 -7 -47 -4 l-33 6 0 -151 0 -151 25 0 25 0 0
134 c0 128 1 134 21 139 28 7 65 -7 73 -28 3 -9 6 -68 6 -131 l0 -114 26 0 26
0 -4 136 c-3 129 -4 137 -27 155 -25 20 -67 25 -91 9z"/>
<path d="M3997 12849 c-30 -18 -47 -73 -47 -154 0 -96 16 -130 69 -146 39 -12
111 -5 111 10 0 5 -21 11 -47 14 -56 6 -83 33 -83 83 l0 34 76 0 76 0 -6 28
c-2 15 -7 44 -11 64 -10 63 -84 99 -138 67z m67 -25 c17 -7 41 -78 31 -94 -3
-6 -26 -10 -51 -10 -43 0 -44 1 -44 33 0 32 23 77 40 77 4 0 15 -3 24 -6z"/>
<path d="M4250 12853 c-33 -12 -50 -37 -50 -73 0 -46 21 -73 80 -103 38 -19
45 -26 45 -52 0 -34 -31 -55 -82 -55 -44 0 -42 -17 2 -26 79 -14 135 18 135
78 0 48 -21 77 -72 100 -84 38 -75 95 16 105 25 3 46 9 46 13 0 15 -88 25
-120 13z"/>
<path d="M4470 12832 c-21 -22 -30 -42 -35 -85 -19 -152 35 -224 150 -203 42
8 47 26 6 26 -51 0 -89 19 -100 52 -23 64 -19 68 64 68 l75 0 -1 38 c0 55 -21
105 -49 119 -41 21 -79 16 -110 -15z m95 -26 c9 -14 15 -37 13 -53 -3 -25 -8
-28 -42 -31 -48 -4 -60 7 -51 47 13 60 53 78 80 37z"/>
<path d="M2130 12700 l0 -150 25 0 25 0 0 150 0 150 -25 0 -25 0 0 -150z"/>
<path d="M4690 12585 c0 -31 3 -35 25 -35 22 0 25 4 25 35 0 31 -3 35 -25 35
-22 0 -25 -4 -25 -35z"/>
<path d="M4790 12585 c0 -31 3 -35 25 -35 22 0 25 4 25 35 0 31 -3 35 -25 35
-22 0 -25 -4 -25 -35z"/>
<path d="M4900 12585 c0 -28 4 -35 20 -35 16 0 20 7 20 35 0 28 -4 35 -20 35
-16 0 -20 -7 -20 -35z"/>
<path d="M5000 12585 c0 -31 3 -35 25 -35 22 0 25 4 25 35 0 31 -3 35 -25 35
-22 0 -25 -4 -25 -35z"/>
<path d="M5100 12585 c0 -31 3 -35 25 -35 22 0 25 4 25 35 0 31 -3 35 -25 35
-22 0 -25 -4 -25 -35z"/>
<path d="M5200 12585 c0 -31 3 -35 25 -35 22 0 25 4 25 35 0 31 -3 35 -25 35
-22 0 -25 -4 -25 -35z"/>
<path d="M5300 12585 c0 -31 3 -35 25 -35 22 0 25 4 25 35 0 31 -3 35 -25 35
-22 0 -25 -4 -25 -35z"/>
<path d="M5410 12585 c0 -28 4 -35 20 -35 16 0 20 7 20 35 0 28 -4 35 -20 35
-16 0 -20 -7 -20 -35z"/>
<path d="M5510 12585 c0 -31 3 -35 25 -35 22 0 25 4 25 35 0 31 -3 35 -25 35
-22 0 -25 -4 -25 -35z"/>
<path d="M5610 12585 c0 -31 3 -35 25 -35 22 0 25 4 25 35 0 31 -3 35 -25 35
-22 0 -25 -4 -25 -35z"/>
<path d="M5710 12585 c0 -31 3 -35 25 -35 22 0 25 4 25 35 0 31 -3 35 -25 35
-22 0 -25 -4 -25 -35z"/>
<path d="M5810 12585 c0 -31 3 -35 25 -35 22 0 25 4 25 35 0 31 -3 35 -25 35
-22 0 -25 -4 -25 -35z"/>
<path d="M5920 12585 c0 -28 4 -35 20 -35 16 0 20 7 20 35 0 28 -4 35 -20 35
-16 0 -20 -7 -20 -35z"/>
<path d="M6020 12585 c0 -31 3 -35 25 -35 22 0 25 4 25 35 0 31 -3 35 -25 35
-22 0 -25 -4 -25 -35z"/>
<path d="M6120 12585 c0 -31 3 -35 25 -35 22 0 25 4 25 35 0 31 -3 35 -25 35
-22 0 -25 -4 -25 -35z"/>
<path d="M6220 12585 c0 -31 3 -35 25 -35 22 0 25 4 25 35 0 31 -3 35 -25 35
-22 0 -25 -4 -25 -35z"/>
<path d="M6320 12585 c0 -31 3 -35 25 -35 22 0 25 4 25 35 0 31 -3 35 -25 35
-22 0 -25 -4 -25 -35z"/>
<path d="M6430 12585 c0 -28 4 -35 20 -35 16 0 20 7 20 35 0 28 -4 35 -20 35
-16 0 -20 -7 -20 -35z"/>
<path d="M6530 12585 c0 -31 3 -35 25 -35 22 0 25 4 25 35 0 31 -3 35 -25 35
-22 0 -25 -4 -25 -35z"/>
<path d="M6630 12585 c0 -31 3 -35 25 -35 22 0 25 4 25 35 0 31 -3 35 -25 35
-22 0 -25 -4 -25 -35z"/>
<path d="M6730 12585 c0 -31 3 -35 25 -35 22 0 25 4 25 35 0 31 -3 35 -25 35
-22 0 -25 -4 -25 -35z"/>
<path d="M6830 12585 c0 -31 3 -35 25 -35 22 0 25 4 25 35 0 31 -3 35 -25 35
-22 0 -25 -4 -25 -35z"/>
<path d="M6940 12585 c0 -28 4 -35 20 -35 16 0 20 7 20 35 0 28 -4 35 -20 35
-16 0 -20 -7 -20 -35z"/>
<path d="M7040 12585 c0 -31 3 -35 25 -35 22 0 25 4 25 35 0 31 -3 35 -25 35
-22 0 -25 -4 -25 -35z"/>
<path d="M740 11433 c-65 -21 -90 -62 -90 -145 0 -80 24 -112 115 -153 84 -39
102 -62 91 -119 -11 -55 -45 -76 -127 -76 -61 0 -69 -2 -69 -19 0 -16 10 -21
56 -27 69 -8 121 0 154 24 40 30 51 61 48 134 -4 82 -17 98 -115 145 -79 39
-100 68 -88 123 12 54 39 70 122 70 65 0 73 2 73 19 0 14 -10 20 -37 25 -44 7
-111 7 -133 -1z"/>
<path d="M1340 11346 l0 -85 -27 15 c-62 32 -115 13 -144 -49 -21 -48 -26
-186 -8 -251 21 -76 84 -107 149 -73 14 8 42 12 63 9 l37 -4 0 261 0 261 -35
0 -35 0 0 -84z m-5 -256 l0 -144 -27 -7 c-61 -16 -96 40 -96 151 0 111 35 167
96 151 l27 -7 0 -144z"/>
<path d="M1000 11365 c0 -43 1 -45 30 -45 29 0 30 2 30 45 0 43 -1 45 -30 45
-29 0 -30 -2 -30 -45z"/>
<path d="M1560 11277 c-45 -22 -64 -80 -64 -192 0 -77 4 -108 18 -133 27 -52
97 -73 185 -56 53 11 37 31 -30 37 -78 7 -100 27 -107 96 l-5 51 93 0 93 0 -5
64 c-6 71 -29 119 -65 135 -32 15 -82 14 -113 -2z m96 -52 c9 -13 18 -42 21
-65 l6 -40 -63 0 -63 0 6 45 c8 78 60 111 93 60z"/>
<path d="M1861 11279 c-36 -14 -50 -39 -51 -90 0 -60 25 -92 99 -127 52 -25
56 -30 59 -64 4 -45 -14 -57 -94 -65 -33 -4 -54 -11 -54 -18 0 -27 109 -34
165 -11 47 20 65 79 44 139 -12 37 -22 46 -81 76 -68 35 -85 55 -73 91 7 21
59 40 113 40 20 0 32 5 32 14 0 24 -110 35 -159 15z"/>
<path d="M1000 11090 l0 -190 30 0 30 0 0 190 0 190 -30 0 -30 0 0 -190z"/>
<path d="M6680 10509 c0 -13 -10 -23 -30 -31 -62 -21 -82 -130 -35 -187 14
-16 35 -33 45 -36 18 -6 20 -16 20 -86 l0 -79 -40 0 c-29 0 -40 -4 -40 -15 0
-10 14 -17 40 -21 30 -5 40 -11 40 -25 0 -11 7 -19 15 -19 8 0 15 9 15 19 0
12 14 26 38 38 29 14 40 27 51 62 20 63 1 118 -51 146 l-38 20 0 78 0 77 40 0
c29 0 40 4 40 15 0 10 -14 17 -40 21 -30 5 -40 11 -40 25 0 11 -7 19 -15 19
-8 0 -15 -9 -15 -21z m0 -134 c0 -36 -2 -65 -4 -65 -3 0 -12 7 -20 16 -18 18
-21 66 -6 95 20 35 30 19 30 -46z m66 -170 c17 -26 13 -67 -8 -92 -21 -25 -28
-12 -28 52 0 69 10 80 36 40z"/>
<path d="M214 10476 c-47 -21 -69 -86 -69 -206 1 -105 14 -156 49 -189 27 -25
87 -37 140 -27 l36 7 0 114 0 115 -25 0 -25 0 0 -100 0 -100 -34 0 c-49 0 -82
43 -92 116 -13 108 11 222 51 238 9 3 39 6 66 6 35 0 49 4 49 14 0 26 -95 34
-146 12z"/>
<path d="M1578 10483 c-16 -4 -18 -23 -18 -213 l0 -209 36 -7 c60 -11 135 3
162 30 47 47 34 174 -19 191 -19 6 -18 8 6 37 45 54 26 145 -36 167 -32 11
-98 13 -131 4z m122 -53 c12 -12 20 -33 20 -55 0 -22 -8 -43 -20 -55 -12 -12
-33 -20 -55 -20 l-35 0 0 75 0 75 35 0 c22 0 43 -8 55 -20z m20 -197 c18 -22
21 -37 17 -72 -6 -54 -26 -71 -84 -71 l-43 0 0 85 0 85 44 0 c37 0 48 -5 66
-27z"/>
<path d="M6878 10483 c-10 -2 -18 -11 -18 -19 0 -10 14 -14 54 -14 65 0 86
-21 86 -83 0 -49 -18 -83 -96 -184 -35 -45 -64 -91 -64 -102 0 -20 5 -21 105
-21 98 0 105 1 105 20 0 18 -7 20 -76 20 l-76 0 36 48 c86 111 109 152 114
200 5 61 -18 119 -53 132 -26 10 -85 12 -117 3z"/>
<path d="M7531 10464 c-39 -33 -51 -77 -51 -194 0 -117 12 -161 51 -194 56
-48 126 -29 161 42 18 38 22 63 22 152 0 89 -4 114 -22 152 -35 71 -105 90
-161 42z m116 -56 c19 -38 26 -156 14 -223 -19 -107 -82 -132 -118 -47 -20 46
-22 201 -4 254 17 51 48 73 76 54 11 -7 26 -24 32 -38z"/>
<path d="M900 10270 l0 -210 25 0 25 0 0 210 0 210 -25 0 -25 0 0 -210z"/>
<path d="M2700 10416 l0 -63 -39 10 c-32 9 -44 8 -65 -7 -39 -25 -48 -60 -44
-165 4 -89 6 -95 33 -118 24 -21 34 -24 64 -18 20 4 51 7 69 6 l32 -1 0 210 0
210 -25 0 c-24 0 -25 -2 -25 -64z m-9 -86 c5 0 9 -54 9 -120 0 -66 -4 -120 -9
-120 -5 0 -16 -3 -25 -6 -9 -3 -26 5 -41 20 -23 23 -25 33 -25 106 0 73 2 83
25 106 15 15 32 23 41 20 9 -3 20 -6 25 -6z"/>
<path d="M7220 10375 l0 -105 49 0 c71 0 96 -23 96 -88 0 -72 -21 -92 -97 -92
-44 0 -58 -3 -58 -15 0 -34 138 -32 172 3 42 41 43 158 2 203 -10 11 -37 21
-65 25 l-49 7 0 63 0 64 65 0 c58 0 65 2 65 20 0 19 -7 20 -90 20 l-90 0 0
-105z"/>
<path d="M1020 10435 c0 -31 3 -35 25 -35 22 0 25 4 25 35 0 31 -3 35 -25 35
-22 0 -25 -4 -25 -35z"/>
<path d="M478 10364 c-32 -9 -19 -21 28 -27 57 -6 76 -24 78 -74 l1 -38 -52 3
c-69 5 -93 -18 -93 -88 0 -69 26 -95 84 -85 22 4 56 7 74 6 l32 -1 0 133 c0
121 -2 136 -20 152 -20 18 -97 29 -132 19z m110 -217 c3 -43 1 -48 -22 -57
-53 -20 -96 22 -76 75 10 27 25 35 65 32 28 -2 30 -5 33 -50z"/>
<path d="M1200 10357 c-38 -19 -50 -54 -50 -147 0 -132 37 -172 140 -155 54 9
50 21 -7 28 -31 3 -53 12 -64 26 -38 47 -31 179 12 214 11 9 36 17 55 17 38 0
45 15 12 24 -36 9 -71 7 -98 -7z"/>
<path d="M2070 10342 c-21 -22 -30 -42 -35 -85 -19 -152 35 -224 150 -203 42
8 47 26 6 26 -51 0 -89 19 -100 52 -23 64 -19 68 64 68 l75 0 -1 38 c0 55 -21
105 -49 119 -41 21 -79 16 -110 -15z m95 -26 c9 -14 15 -37 13 -53 -3 -25 -8
-28 -42 -31 -48 -4 -60 7 -51 47 13 60 53 78 80 37z"/>
<path d="M2328 10364 c-32 -9 -19 -21 27 -26 60 -7 75 -22 75 -73 l0 -42 -48
5 c-69 6 -97 -19 -97 -88 0 -66 29 -95 85 -85 19 3 52 6 73 6 l37 -1 0 129 c0
156 -8 172 -86 177 -27 1 -57 0 -66 -2z m102 -218 c0 -46 -3 -54 -21 -59 -64
-17 -109 61 -57 97 12 9 35 16 50 16 27 0 28 -2 28 -54z"/>
<path d="M710 10210 l0 -150 25 0 25 0 0 124 c0 120 1 124 23 130 12 3 32 6
45 6 15 0 22 6 22 20 0 23 -23 26 -67 9 -19 -7 -29 -7 -31 0 -2 6 -12 11 -23
11 -18 0 -19 -9 -19 -150z"/>
<path d="M1020 10210 l0 -150 25 0 25 0 0 150 0 150 -25 0 -25 0 0 -150z"/>
<path d="M1850 10210 l0 -150 25 0 25 0 0 120 c0 120 0 121 26 130 14 6 36 10
50 10 17 0 24 5 24 20 0 23 -37 28 -73 9 -16 -9 -22 -9 -25 0 -2 6 -15 11 -28
11 l-24 0 0 -150z"/>
<path d="M2820 10095 c0 -31 3 -35 25 -35 22 0 25 4 25 35 0 31 -3 35 -25 35
-22 0 -25 -4 -25 -35z"/>
<path d="M2920 10095 c0 -31 3 -35 25 -35 22 0 25 4 25 35 0 31 -3 35 -25 35
-22 0 -25 -4 -25 -35z"/>
<path d="M3020 10095 c0 -31 3 -35 25 -35 22 0 25 4 25 35 0 31 -3 35 -25 35
-22 0 -25 -4 -25 -35z"/>
<path d="M3130 10095 c0 -28 4 -35 20 -35 16 0 20 7 20 35 0 28 -4 35 -20 35
-16 0 -20 -7 -20 -35z"/>
<path d="M3230 10095 c0 -31 3 -35 25 -35 22 0 25 4 25 35 0 31 -3 35 -25 35
-22 0 -25 -4 -25 -35z"/>
<path d="M3330 10095 c0 -31 3 -35 25 -35 22 0 25 4 25 35 0 31 -3 35 -25 35
-22 0 -25 -4 -25 -35z"/>
<path d="M3430 10095 c0 -31 3 -35 25 -35 22 0 25 4 25 35 0 31 -3 35 -25 35
-22 0 -25 -4 -25 -35z"/>
<path d="M3530 10095 c0 -31 3 -35 25 -35 22 0 25 4 25 35 0 31 -3 35 -25 35
-22 0 -25 -4 -25 -35z"/>
<path d="M3640 10095 c0 -28 4 -35 20 -35 16 0 20 7 20 35 0 28 -4 35 -20 35
-16 0 -20 -7 -20 -35z"/>
<path d="M3740 10095 c0 -31 3 -35 25 -35 22 0 25 4 25 35 0 31 -3 35 -25 35
-22 0 -25 -4 -25 -35z"/>
<path d="M3840 10095 c0 -31 3 -35 25 -35 22 0 25 4 25 35 0 31 -3 35 -25 35
-22 0 -25 -4 -25 -35z"/>
<path d="M3940 10095 c0 -31 3 -35 25 -35 22 0 25 4 25 35 0 31 -3 35 -25 35
-22 0 -25 -4 -25 -35z"/>
<path d="M4040 10095 c0 -31 3 -35 25 -35 22 0 25 4 25 35 0 31 -3 35 -25 35
-22 0 -25 -4 -25 -35z"/>
<path d="M4150 10095 c0 -28 4 -35 20 -35 16 0 20 7 20 35 0 28 -4 35 -20 35
-16 0 -20 -7 -20 -35z"/>
<path d="M4250 10095 c0 -31 3 -35 25 -35 22 0 25 4 25 35 0 31 -3 35 -25 35
-22 0 -25 -4 -25 -35z"/>
<path d="M4350 10095 c0 -31 3 -35 25 -35 22 0 25 4 25 35 0 31 -3 35 -25 35
-22 0 -25 -4 -25 -35z"/>
<path d="M4450 10095 c0 -31 3 -35 25 -35 22 0 25 4 25 35 0 31 -3 35 -25 35
-22 0 -25 -4 -25 -35z"/>
<path d="M4550 10095 c0 -31 3 -35 25 -35 22 0 25 4 25 35 0 31 -3 35 -25 35
-22 0 -25 -4 -25 -35z"/>
<path d="M4660 10095 c0 -28 4 -35 20 -35 16 0 20 7 20 35 0 28 -4 35 -20 35
-16 0 -20 -7 -20 -35z"/>
<path d="M4760 10095 c0 -31 3 -35 25 -35 22 0 25 4 25 35 0 31 -3 35 -25 35
-22 0 -25 -4 -25 -35z"/>
<path d="M4860 10095 c0 -31 3 -35 25 -35 22 0 25 4 25 35 0 31 -3 35 -25 35
-22 0 -25 -4 -25 -35z"/>
<path d="M4960 10095 c0 -31 3 -35 25 -35 22 0 25 4 25 35 0 31 -3 35 -25 35
-22 0 -25 -4 -25 -35z"/>
<path d="M5060 10095 c0 -31 3 -35 25 -35 22 0 25 4 25 35 0 31 -3 35 -25 35
-22 0 -25 -4 -25 -35z"/>
<path d="M5170 10095 c0 -28 4 -35 20 -35 16 0 20 7 20 35 0 28 -4 35 -20 35
-16 0 -20 -7 -20 -35z"/>
<path d="M5270 10095 c0 -31 3 -35 25 -35 22 0 25 4 25 35 0 31 -3 35 -25 35
-22 0 -25 -4 -25 -35z"/>
<path d="M5370 10095 c0 -31 3 -35 25 -35 22 0 25 4 25 35 0 31 -3 35 -25 35
-22 0 -25 -4 -25 -35z"/>
<path d="M5470 10095 c0 -31 3 -35 25 -35 22 0 25 4 25 35 0 31 -3 35 -25 35
-22 0 -25 -4 -25 -35z"/>
<path d="M5570 10095 c0 -31 3 -35 25 -35 22 0 25 4 25 35 0 31 -3 35 -25 35
-22 0 -25 -4 -25 -35z"/>
<path d="M5680 10095 c0 -28 4 -35 20 -35 16 0 20 7 20 35 0 28 -4 35 -20 35
-16 0 -20 -7 -20 -35z"/>
<path d="M5780 10095 c0 -31 3 -35 25 -35 22 0 25 4 25 35 0 31 -3 35 -25 35
-22 0 -25 -4 -25 -35z"/>
<path d="M5880 10095 c0 -31 3 -35 25 -35 22 0 25 4 25 35 0 31 -3 35 -25 35
-22 0 -25 -4 -25 -35z"/>
<path d="M5980 10095 c0 -31 3 -35 25 -35 22 0 25 4 25 35 0 31 -3 35 -25 35
-22 0 -25 -4 -25 -35z"/>
<path d="M6080 10095 c0 -31 3 -35 25 -35 22 0 25 4 25 35 0 31 -3 35 -25 35
-22 0 -25 -4 -25 -35z"/>
<path d="M6190 10095 c0 -28 4 -35 20 -35 16 0 20 7 20 35 0 28 -4 35 -20 35
-16 0 -20 -7 -20 -35z"/>
<path d="M6290 10095 c0 -31 3 -35 25 -35 22 0 25 4 25 35 0 31 -3 35 -25 35
-22 0 -25 -4 -25 -35z"/>
<path d="M6390 10095 c0 -31 3 -35 25 -35 22 0 25 4 25 35 0 31 -3 35 -25 35
-22 0 -25 -4 -25 -35z"/>
<path d="M6490 10095 c0 -31 3 -35 25 -35 22 0 25 4 25 35 0 31 -3 35 -25 35
-22 0 -25 -4 -25 -35z"/>
<path d="M7100 10095 c0 -31 3 -35 25 -35 22 0 25 4 25 35 0 31 -3 35 -25 35
-22 0 -25 -4 -25 -35z"/>
<path d="M7178 9188 c-2 -13 -11 -24 -23 -26 -54 -10 -84 -82 -64 -155 7 -27
21 -44 50 -62 l39 -25 0 -75 0 -75 -45 0 c-32 0 -45 -4 -45 -14 0 -14 29 -26
68 -26 15 0 22 -6 22 -20 0 -11 7 -20 15 -20 9 0 15 9 15 24 0 18 7 25 30 29
61 13 83 128 35 186 -14 16 -35 33 -45 36 -18 6 -20 16 -20 86 l0 79 40 0 c29
0 40 4 40 15 0 10 -14 17 -40 21 -30 5 -40 11 -40 25 0 27 -28 24 -32 -3z m2
-127 c0 -68 -12 -83 -36 -46 -14 22 -15 32 -5 65 19 63 41 52 41 -19z m70
-213 c0 -33 -16 -68 -30 -68 -6 0 -10 30 -10 67 0 65 0 66 20 48 11 -10 20
-31 20 -47z"/>
<path d="M120 9140 c0 -17 7 -20 45 -20 l45 0 0 -190 0 -190 25 0 25 0 0 190
0 190 50 0 c43 0 50 3 50 20 0 19 -7 20 -120 20 -113 0 -120 -1 -120 -20z"/>
<path d="M7370 9055 l0 -105 54 0 c47 0 57 -4 75 -26 13 -16 21 -41 21 -64 0
-23 -8 -48 -21 -64 -18 -23 -28 -26 -80 -26 -45 0 -59 -3 -59 -15 0 -18 57
-29 112 -22 26 3 51 15 67 31 23 23 26 34 26 96 0 62 -3 72 -26 96 -18 18 -41
28 -73 31 l-46 6 0 63 0 64 70 0 c63 0 70 2 70 20 0 19 -7 20 -95 20 l-95 0 0
-105z"/>
<path d="M410 9115 c0 -31 3 -35 25 -35 22 0 25 4 25 35 0 31 -3 35 -25 35
-22 0 -25 -4 -25 -35z"/>
<path d="M1380 9115 c0 -31 3 -35 25 -35 22 0 25 4 25 35 0 31 -3 35 -25 35
-22 0 -25 -4 -25 -35z"/>
<path d="M748 9044 c-32 -10 -19 -21 29 -27 56 -6 86 -35 81 -80 -3 -30 -4
-30 -61 -31 -71 -1 -87 -17 -87 -88 0 -67 26 -92 83 -84 23 4 59 6 81 6 l38
-1 -3 130 c-4 118 -6 133 -26 152 -21 22 -96 34 -135 23z m110 -217 c3 -43 1
-48 -24 -57 -40 -16 -74 10 -74 55 0 40 20 56 65 52 28 -2 30 -5 33 -50z"/>
<path d="M1055 9041 c-11 -5 -32 -6 -47 -4 l-28 6 0 -152 0 -151 25 0 25 0 0
135 c0 121 2 135 18 136 64 5 72 -12 72 -153 l0 -118 26 0 26 0 -4 135 c-2
114 -1 135 12 137 30 3 54 -3 62 -15 4 -6 8 -67 8 -134 l0 -123 25 0 25 0 0
135 c0 124 -2 137 -21 156 -18 18 -28 20 -68 15 -54 -8 -66 -9 -106 -2 -16 3
-39 2 -50 -3z"/>
<path d="M1530 9043 c-27 -9 -40 -36 -40 -78 0 -47 20 -71 82 -100 85 -39 48
-105 -58 -105 -37 0 -28 -18 12 -26 45 -8 103 1 122 20 19 19 20 99 2 121 -8
9 -35 27 -61 40 -25 13 -49 31 -52 40 -14 36 23 65 84 65 16 0 29 4 29 9 0 17
-83 27 -120 14z"/>
<path d="M410 8890 l0 -150 25 0 25 0 0 150 0 150 -25 0 -25 0 0 -150z"/>
<path d="M530 8890 l0 -150 25 0 25 0 0 120 c0 120 0 121 26 130 14 6 36 10
50 10 17 0 24 5 24 20 0 23 -37 28 -73 9 -16 -9 -22 -9 -25 0 -2 6 -15 11 -28
11 l-24 0 0 -150z"/>
<path d="M1380 8890 l0 -150 25 0 25 0 0 150 0 150 -25 0 -25 0 0 -150z"/>
<path d="M1722 8904 c3 -131 4 -137 28 -156 20 -16 33 -19 65 -13 22 4 55 7
73 6 l32 -1 0 150 0 150 -25 0 -25 0 0 -134 c0 -128 -1 -134 -21 -139 -28 -7
-65 7 -73 28 -3 9 -6 68 -6 131 l0 114 -26 0 -26 0 4 -136z"/>
<path d="M1990 8775 c0 -31 3 -35 25 -35 22 0 25 4 25 35 0 31 -3 35 -25 35
-22 0 -25 -4 -25 -35z"/>
<path d="M2090 8775 c0 -31 3 -35 25 -35 22 0 25 4 25 35 0 31 -3 35 -25 35
-22 0 -25 -4 -25 -35z"/>
<path d="M2190 8775 c0 -31 3 -35 25 -35 22 0 25 4 25 35 0 31 -3 35 -25 35
-22 0 -25 -4 -25 -35z"/>
<path d="M2300 8775 c0 -28 4 -35 20 -35 16 0 20 7 20 35 0 28 -4 35 -20 35
-16 0 -20 -7 -20 -35z"/>
<path d="M2400 8775 c0 -31 3 -35 25 -35 22 0 25 4 25 35 0 31 -3 35 -25 35
-22 0 -25 -4 -25 -35z"/>
<path d="M2500 8775 c0 -31 3 -35 25 -35 22 0 25 4 25 35 0 31 -3 35 -25 35
-22 0 -25 -4 -25 -35z"/>
<path d="M2600 8775 c0 -31 3 -35 25 -35 22 0 25 4 25 35 0 31 -3 35 -25 35
-22 0 -25 -4 -25 -35z"/>
<path d="M2700 8775 c0 -31 3 -35 25 -35 22 0 25 4 25 35 0 31 -3 35 -25 35
-22 0 -25 -4 -25 -35z"/>
<path d="M2810 8775 c0 -28 4 -35 20 -35 16 0 20 7 20 35 0 28 -4 35 -20 35
-16 0 -20 -7 -20 -35z"/>
<path d="M2910 8775 c0 -31 3 -35 25 -35 22 0 25 4 25 35 0 31 -3 35 -25 35
-22 0 -25 -4 -25 -35z"/>
<path d="M3010 8775 c0 -31 3 -35 25 -35 22 0 25 4 25 35 0 31 -3 35 -25 35
-22 0 -25 -4 -25 -35z"/>
<path d="M3110 8775 c0 -31 3 -35 25 -35 22 0 25 4 25 35 0 31 -3 35 -25 35
-22 0 -25 -4 -25 -35z"/>
<path d="M3210 8775 c0 -31 3 -35 25 -35 22 0 25 4 25 35 0 31 -3 35 -25 35
-22 0 -25 -4 -25 -35z"/>
<path d="M3320 8775 c0 -28 4 -35 20 -35 16 0 20 7 20 35 0 28 -4 35 -20 35
-16 0 -20 -7 -20 -35z"/>
<path d="M3420 8775 c0 -31 3 -35 25 -35 22 0 25 4 25 35 0 31 -3 35 -25 35
-22 0 -25 -4 -25 -35z"/>
<path d="M3520 8775 c0 -31 3 -35 25 -35 22 0 25 4 25 35 0 31 -3 35 -25 35
-22 0 -25 -4 -25 -35z"/>
<path d="M3620 8775 c0 -31 3 -35 25 -35 22 0 25 4 25 35 0 31 -3 35 -25 35
-22 0 -25 -4 -25 -35z"/>
<path d="M3720 8775 c0 -31 3 -35 25 -35 22 0 25 4 25 35 0 31 -3 35 -25 35
-22 0 -25 -4 -25 -35z"/>
<path d="M3830 8775 c0 -28 4 -35 20 -35 16 0 20 7 20 35 0 28 -4 35 -20 35
-16 0 -20 -7 -20 -35z"/>
<path d="M3930 8775 c0 -31 3 -35 25 -35 22 0 25 4 25 35 0 31 -3 35 -25 35
-22 0 -25 -4 -25 -35z"/>
<path d="M4030 8775 c0 -31 3 -35 25 -35 22 0 25 4 25 35 0 31 -3 35 -25 35
-22 0 -25 -4 -25 -35z"/>
<path d="M4130 8775 c0 -31 3 -35 25 -35 22 0 25 4 25 35 0 31 -3 35 -25 35
-22 0 -25 -4 -25 -35z"/>
<path d="M4230 8775 c0 -31 3 -35 25 -35 22 0 25 4 25 35 0 31 -3 35 -25 35
-22 0 -25 -4 -25 -35z"/>
<path d="M4340 8775 c0 -28 4 -35 20 -35 16 0 20 7 20 35 0 28 -4 35 -20 35
-16 0 -20 -7 -20 -35z"/>
<path d="M4440 8775 c0 -31 3 -35 25 -35 22 0 25 4 25 35 0 31 -3 35 -25 35
-22 0 -25 -4 -25 -35z"/>
<path d="M4540 8775 c0 -31 3 -35 25 -35 22 0 25 4 25 35 0 31 -3 35 -25 35
-22 0 -25 -4 -25 -35z"/>
<path d="M4640 8775 c0 -31 3 -35 25 -35 22 0 25 4 25 35 0 31 -3 35 -25 35
-22 0 -25 -4 -25 -35z"/>
<path d="M4740 8775 c0 -31 3 -35 25 -35 22 0 25 4 25 35 0 31 -3 35 -25 35
-22 0 -25 -4 -25 -35z"/>
<path d="M4850 8775 c0 -28 4 -35 20 -35 16 0 20 7 20 35 0 28 -4 35 -20 35
-16 0 -20 -7 -20 -35z"/>
<path d="M4950 8775 c0 -31 3 -35 25 -35 22 0 25 4 25 35 0 31 -3 35 -25 35
-22 0 -25 -4 -25 -35z"/>
<path d="M5050 8775 c0 -31 3 -35 25 -35 22 0 25 4 25 35 0 31 -3 35 -25 35
-22 0 -25 -4 -25 -35z"/>
<path d="M5150 8775 c0 -31 3 -35 25 -35 22 0 25 4 25 35 0 31 -3 35 -25 35
-22 0 -25 -4 -25 -35z"/>
<path d="M5250 8775 c0 -31 3 -35 25 -35 22 0 25 4 25 35 0 31 -3 35 -25 35
-22 0 -25 -4 -25 -35z"/>
<path d="M5360 8775 c0 -28 4 -35 20 -35 16 0 20 7 20 35 0 28 -4 35 -20 35
-16 0 -20 -7 -20 -35z"/>
<path d="M5460 8775 c0 -31 3 -35 25 -35 22 0 25 4 25 35 0 31 -3 35 -25 35
-22 0 -25 -4 -25 -35z"/>
<path d="M5560 8775 c0 -31 3 -35 25 -35 22 0 25 4 25 35 0 31 -3 35 -25 35
-22 0 -25 -4 -25 -35z"/>
<path d="M5660 8775 c0 -31 3 -35 25 -35 22 0 25 4 25 35 0 31 -3 35 -25 35
-22 0 -25 -4 -25 -35z"/>
<path d="M5760 8775 c0 -31 3 -35 25 -35 22 0 25 4 25 35 0 31 -3 35 -25 35
-22 0 -25 -4 -25 -35z"/>
<path d="M5870 8775 c0 -28 4 -35 20 -35 16 0 20 7 20 35 0 28 -4 35 -20 35
-16 0 -20 -7 -20 -35z"/>
<path d="M5970 8775 c0 -31 3 -35 25 -35 22 0 25 4 25 35 0 31 -3 35 -25 35
-22 0 -25 -4 -25 -35z"/>
<path d="M6070 8775 c0 -31 3 -35 25 -35 22 0 25 4 25 35 0 31 -3 35 -25 35
-22 0 -25 -4 -25 -35z"/>
<path d="M6170 8775 c0 -31 3 -35 25 -35 22 0 25 4 25 35 0 31 -3 35 -25 35
-22 0 -25 -4 -25 -35z"/>
<path d="M6270 8775 c0 -31 3 -35 25 -35 22 0 25 4 25 35 0 31 -3 35 -25 35
-22 0 -25 -4 -25 -35z"/>
<path d="M6380 8775 c0 -28 4 -35 20 -35 16 0 20 7 20 35 0 28 -4 35 -20 35
-16 0 -20 -7 -20 -35z"/>
<path d="M6480 8775 c0 -31 3 -35 25 -35 22 0 25 4 25 35 0 31 -3 35 -25 35
-22 0 -25 -4 -25 -35z"/>
<path d="M6580 8775 c0 -31 3 -35 25 -35 22 0 25 4 25 35 0 31 -3 35 -25 35
-22 0 -25 -4 -25 -35z"/>
<path d="M6680 8775 c0 -31 3 -35 25 -35 22 0 25 4 25 35 0 31 -3 35 -25 35
-22 0 -25 -4 -25 -35z"/>
<path d="M6780 8775 c0 -31 3 -35 25 -35 22 0 25 4 25 35 0 31 -3 35 -25 35
-22 0 -25 -4 -25 -35z"/>
<path d="M6890 8775 c0 -28 4 -35 20 -35 16 0 20 7 20 35 0 28 -4 35 -20 35
-16 0 -20 -7 -20 -35z"/>
<path d="M6990 8775 c0 -31 3 -35 25 -35 22 0 25 4 25 35 0 31 -3 35 -25 35
-22 0 -25 -4 -25 -35z"/>
</g>
</svg>
